<?xml version="1.0" encoding="UTF-8"?>
<svg xmlns="http://www.w3.org/2000/svg" version="1.1" viewBox="0 0 181.3 50">
  <defs>
    <style>
      .cls-1 {
        fill: #e16b26;
      }

      .cls-2 {
        fill: #8792a0;
      }

      .cls-3 {
        fill: #4e5359;
      }
    </style>
  </defs>
  <!-- Generator: Adobe Illustrator 28.6.0, SVG Export Plug-In . SVG Version: 1.2.0 Build 709)  -->
  <g>
    <g id="Layer_1">
      <g>
        <path class="cls-3" d="M57.3,27.2c0-.5.2-1,.5-1.4.4-.4.8-.6,1.4-.6s1,.2,1.4.6c.4.4.6.8.6,1.4s-.2,1-.6,1.3c-.4.3-.9.5-1.4.5s-1-.2-1.4-.5c-.4-.3-.5-.8-.5-1.3M57.9,32.4h2.8v17.3h-2.8v-17.3Z"/>
        <polygon class="cls-3" points="67.7 49.7 76.4 29.4 77 28.1 75.9 28.1 66 28.1 66 25.5 80.5 25.5 80.5 26.4 70.5 49.7 67.7 49.7"/>
        <polygon class="cls-3" points="104.3 33.5 104.3 31.1 104.3 31.2 103.2 33.2 96.9 44.1 96 44.1 89.3 33.1 88.6 31.6 88.4 31.3 88.4 33.4 88.4 49.7 85.7 49.7 85.7 25.5 87.8 25.5 95.4 37.9 96.6 39.9 96.6 39.9 97.7 37.8 104.9 25.5 107.2 25.5 107.2 49.7 104.3 49.7 104.3 33.5"/>
        <polygon class="cls-3" points="113.1 25.5 126.2 25.5 126.2 28.1 115.9 28.1 115.9 36 125.4 36 125.4 38.5 115.9 38.5 115.9 47.2 126.4 47.2 126.4 49.7 113.1 49.7 113.1 25.5"/>
        <path class="cls-3" d="M131.6,25.5c.4,0,.9-.1,1.5-.2.5,0,1.1,0,1.7,0,.6,0,1.2,0,1.7,0,.6,0,1.1,0,1.6,0,1.9,0,3.6.3,5,.9,1.4.6,2.6,1.4,3.5,2.5.9,1.1,1.6,2.4,2.1,3.9.5,1.5.7,3.1.7,4.9s-.2,3.2-.6,4.7c-.4,1.5-1.1,2.8-2,4-.9,1.2-2.1,2.1-3.6,2.8-1.5.7-3.3,1.1-5.4,1.1s-.8,0-1.4,0c-.6,0-1.2,0-1.8,0-.6,0-1.2,0-1.7,0-.5,0-.9,0-1.1-.1v-24.3ZM138.1,27.8h-1c-.4,0-.7,0-1.1,0-.3,0-.7,0-1,0-.3,0-.5,0-.7,0v19.4c.1,0,.3,0,.7,0,.3,0,.7,0,1,0,.3,0,.7,0,1,0s.5,0,.7,0c1.6,0,3-.3,4.1-.8s2-1.3,2.6-2.2c.7-.9,1.1-2,1.4-3.2.3-1.2.4-2.5.4-3.8s-.1-2.3-.4-3.4-.7-2.2-1.3-3.1c-.6-.9-1.5-1.7-2.5-2.3-1.1-.6-2.4-.9-4-.9"/>
        <rect class="cls-3" x="154.9" y="25.5" width="2.9" height="24.2"/>
        <path class="cls-3" d="M175.8,43h-8.9l-2.4,6.7h-2.9l9.2-24.6h1.3l9.2,24.6h-3l-2.5-6.7ZM167.8,40.5h7.1l-2.5-7.6-1-3.5h0l-1,3.5-2.5,7.5Z"/>
        <path class="cls-1" d="M57.3,27.2c0-.5.2-1,.5-1.4.4-.4.8-.6,1.4-.6s1,.2,1.4.6c.4.4.6.8.6,1.4s-.2,1-.6,1.3c-.4.3-.9.5-1.4.5s-1-.2-1.4-.5c-.4-.3-.5-.8-.5-1.3"/>
        <g>
          <rect class="cls-2" x="35.2" y="35.2" width="14.8" height="14.8"/>
          <rect class="cls-2" x="35.2" y="17.6" width="14.8" height="14.8"/>
          <rect class="cls-2" x="35.2" width="14.8" height="14.8"/>
          <rect class="cls-2" y="35.2" width="14.8" height="14.8"/>
          <rect class="cls-2" y="17.6" width="14.8" height="14.8"/>
          <rect class="cls-2" width="14.8" height="14.8"/>
          <polygon class="cls-3" points="32.4 49.9 25 49.9 17.6 49.9 17.6 33.8 17.6 18 25 23.6 32.4 18 32.4 33.8 32.4 49.9"/>
          <polygon class="cls-1" points="32.4 14.8 25 20 17.6 14.8 17.6 7.4 17.6 0 25 0 32.4 0 32.4 7.4 32.4 14.8"/>
        </g>
      </g>
    </g>
  </g>
</svg>
