<?xml version="1.0" encoding="utf-8"?>
<!-- Generator: Adobe Illustrator 16.0.3, SVG Export Plug-In . SVG Version: 6.00 Build 0)  -->
<!DOCTYPE svg PUBLIC "-//W3C//DTD SVG 1.1//EN" "http://www.w3.org/Graphics/SVG/1.1/DTD/svg11.dtd">
<svg version="1.1"
	 id="svg2" xmlns:dc="http://purl.org/dc/elements/1.1/" xmlns:cc="http://creativecommons.org/ns#" xmlns:rdf="http://www.w3.org/1999/02/22-rdf-syntax-ns#" xmlns:svg="http://www.w3.org/2000/svg" xmlns:sodipodi="http://sodipodi.sourceforge.net/DTD/sodipodi-0.dtd" xmlns:inkscape="http://www.inkscape.org/namespaces/inkscape" sodipodi:docname="dotted logo with text (tm).emf" inkscape:version="0.48.1 "
	 xmlns="http://www.w3.org/2000/svg" xmlns:xlink="http://www.w3.org/1999/xlink" x="0px" y="0px" width="343.736px"
	 height="96.607px" viewBox="0 0 343.736 96.607" enable-background="new 0 0 343.736 96.607" xml:space="preserve">
<sodipodi:namedview  fit-margin-left="0" fit-margin-top="0" inkscape:cy="47.742874" inkscape:cx="170.3325" inkscape:zoom="1.4090088" showgrid="false" guidetolerance="10" gridtolerance="10" objecttolerance="10" borderopacity="1" pagecolor="#ffffff" bordercolor="#666666" id="namedview4" fit-margin-bottom="0" fit-margin-right="0" inkscape:current-layer="g10" inkscape:window-maximized="0" inkscape:window-y="0" inkscape:window-x="1920" inkscape:window-height="480" inkscape:window-width="788" inkscape:pageshadow="2" inkscape:pageopacity="0">
	</sodipodi:namedview>
<g id="g10" transform="matrix(1.25,0,0,-1.25,0,97.730625)" inkscape:label="Vector Smart Object" inkscape:groupmode="layer">
	<path id="path12" inkscape:connector-curvature="0" fill="#919191" d="M0,55.4h22.784v22.784H0V55.4z"/>
	<path id="path14" inkscape:connector-curvature="0" fill="#919191" d="M0,28.057h22.784v22.785H0V28.057z"/>
	<path id="path16" inkscape:connector-curvature="0" fill="#919191" d="M0,0.898h22.784v22.784H0V0.898z"/>
	<g id="g18" transform="translate(50.2764,55.8525)">
		<path id="path20" inkscape:connector-curvature="0" fill="#E26917" d="M0,0l-11.373-8.596L-22.785,0v22.332H0V0z"/>
	</g>
	<g id="g22" transform="translate(50.2764,23.6836)">
		<path id="path24" inkscape:connector-curvature="0" fill="#4C4C4C" d="M0,0v-22.785h-22.785V0v4.374v22.333l11.412-8.595L0,26.707
			V4.374V0z"/>
	</g>
	<path id="path26" inkscape:connector-curvature="0" fill="#919191" d="M78.364,55.4H55.581v22.784h22.783V55.4z"/>
	<path id="path28" inkscape:connector-curvature="0" fill="#919191" d="M78.364,28.058H55.581v22.785h22.783V28.058z"/>
	<path id="path30" inkscape:connector-curvature="0" fill="#919191" d="M78.364,0.898H55.581v22.784h22.783V0.898z"/>
	<g id="g32">
		<g>
			<defs>
				<rect id="SVGID_1_" x="-34.066" y="-9.773" width="340.665" height="97.731"/>
			</defs>
			<clipPath id="SVGID_2_">
				<use xlink:href="#SVGID_1_"  overflow="visible"/>
			</clipPath>
			<g id="g34" clip-path="url(#SVGID_2_)">
				<g id="g40" transform="translate(95.0957,35.4541)">
					<path id="path42" inkscape:connector-curvature="0" fill="#4C4C4C" d="M0,0v-30.271c0-0.672-0.113-1.123-0.346-1.355
						c-0.229-0.23-0.681-0.346-1.353-0.346h-3.335V-1.7c0,0.672,0.116,1.12,0.346,1.35C-4.456-0.119-4.005,0-3.332,0H0z"/>
				</g>
				<g id="g44" transform="translate(118.1924,47.5342)">
					<path id="path46" inkscape:connector-curvature="0" fill="#4C4C4C" d="M0,0c0.63,0,1.026-0.115,1.197-0.345
						C1.362-0.577,1.469-1.028,1.51-1.7v-1.95L-9.314-44.052h-4.785L-3.335-3.65H-16.93v1.95c0,0.672,0.117,1.123,0.346,1.355
						C-16.352-0.115-15.903,0-15.23,0H0z"/>
				</g>
				<g id="g48" transform="translate(143.8027,18.7744)">
					<path id="path50" inkscape:connector-curvature="0" fill="#4C4C4C" d="M0,0c-0.292-0.628-0.578-1.068-0.848-1.32
						c-0.272-0.252-0.682-0.378-1.225-0.378h-2.016l-8.748,23.033h-0.375l0.5-7.615l0.317-27.312c0-0.673-0.119-1.123-0.348-1.355
						c-0.23-0.23-0.68-0.345-1.35-0.345h-3.462V27.06c0,0.671,0.115,1.123,0.345,1.355c0.23,0.23,0.683,0.345,1.354,0.345h4.213
						l8.059-20.514l1.384-5.224h0.377l1.448,5.224L7.553,27.06c0.252,0.589,0.544,1.018,0.88,1.292
						c0.337,0.272,0.82,0.408,1.448,0.408h3.777v-42.352c0-0.673-0.116-1.123-0.347-1.355c-0.231-0.23-0.684-0.345-1.352-0.345
						H8.622V13.72l0.567,7.615H8.812L0,0z"/>
				</g>
				<g id="g52" transform="translate(171.5566,24.501)">
					<path id="path54" inkscape:connector-curvature="0" fill="#4C4C4C" d="M0,0v-17.366h12.02v-1.952
						c0-0.672-0.117-1.123-0.348-1.355c-0.231-0.23-0.684-0.346-1.352-0.346H-5.035v42.352c0,0.672,0.114,1.123,0.348,1.355
						c0.227,0.23,0.68,0.345,1.352,0.345h15.356v-1.952c0-0.67-0.097-1.122-0.284-1.353c-0.188-0.23-0.62-0.345-1.289-0.345H0V3.65
						h10.131V1.699c0-0.67-0.095-1.123-0.283-1.352C9.658,0.116,9.229,0,8.559,0H0z"/>
				</g>
				<g id="g56" transform="translate(212.0186,34.7861)">
					<path id="path58" inkscape:connector-curvature="0" fill="#4C4C4C" d="M0,0v-25.325c0-2.182-0.449-3.723-1.351-4.625
						c-0.903-0.904-2.445-1.354-4.625-1.354h-5.919c-0.669,0-1.098,0.116-1.287,0.346c-0.191,0.231-0.286,0.683-0.286,1.354v1.952
						h5.478c1.3,0,2.116,0.272,2.455,0.817c0.334,0.545,0.502,1.466,0.502,2.77V5.511c0,1.302-0.167,2.224-0.502,2.771
						C-5.874,8.824-6.69,9.098-7.99,9.098h-7.992v-40.402h-5.036v42.352c0,0.672,0.114,1.123,0.345,1.355
						c0.23,0.23,0.683,0.345,1.355,0.345h13.342c2.18,0,3.722-0.452,4.625-1.353C-0.449,10.493,0,8.951,0,6.77V0"/>
				</g>
				<g id="g60" transform="translate(225.9922,47.5342)">
					<path id="path62" inkscape:connector-curvature="0" fill="#4C4C4C" d="M0,0v-42.352c0-0.671-0.116-1.123-0.347-1.354
						c-0.23-0.23-0.684-0.346-1.354-0.346h-3.332V-1.7c0,0.672,0.113,1.123,0.341,1.355C-4.46-0.115-4.005,0-3.336,0H0z"/>
				</g>
				<g id="g64" transform="translate(240.0879,24.501)">
					<path id="path66" inkscape:connector-curvature="0" fill="#4C4C4C" d="M0,0v-19.318c0-0.672-0.116-1.123-0.348-1.355
						c-0.23-0.23-0.682-0.346-1.352-0.346h-3.336v38.074c0,2.18,0.452,3.723,1.353,4.625c0.902,0.902,2.445,1.353,4.623,1.353h9.066
						c2.18,0,3.722-0.452,4.623-1.353c0.903-0.902,1.351-2.445,1.351-4.625v-36.373c0-0.672-0.113-1.123-0.343-1.355
						c-0.232-0.23-0.683-0.346-1.355-0.346h-3.336v36.815c0,1.217-0.156,2.099-0.469,2.645c-0.316,0.545-1.019,0.861-2.109,0.943
						H2.577c-1.131-0.082-1.843-0.398-2.136-0.943C0.145,17.895,0,17.013,0,15.796V3.65h8.431V1.699c0-0.67-0.095-1.123-0.284-1.352
						C7.959,0.116,7.53,0,6.857,0H0z"/>
				</g>
				<g id="g68" transform="translate(89.8105,42.1865)">
					<path id="path70" inkscape:connector-curvature="0" fill="#E26917" d="M0,0c0,0.668,0.114,1.123,0.349,1.353
						C0.575,1.581,1.027,1.697,1.7,1.697h3.839v-3.336c0-0.669-0.116-1.122-0.349-1.352C4.961-3.22,4.511-3.336,3.839-3.336H0V0z"/>
				</g>
			</g>
		</g>
	</g>
	<g enable-background="new    ">
		<path fill="#4C4C4C" d="M263.574,3.701v8.28h-2.536v1.108h6.102V11.98h-2.548v-8.28H263.574z"/>
	</g>
	<g enable-background="new    ">
		<path fill="#4C4C4C" d="M265.859,3.701v9.387h1.531l1.827-6.647l0.366-1.389c0.089,0.345,0.227,0.847,0.409,1.505l1.847,6.531
			h1.37V3.701h-0.98v7.851l-2.244-7.851h-0.916l-2.231,7.986V3.701H265.859z"/>
	</g>
</g>
</svg>
